<mxfile host="app.diagrams.net" agent="Mozilla/5.0 (Windows NT 10.0; Win64; x64) AppleWebKit/537.36 (KHTML, like Gecko) Chrome/130.0.0.0 Safari/537.36 Edg/130.0.0.0" version="24.8.4">
  <diagram id="C5RBs43oDa-KdzZeNtuy" name="Page-1">
    <mxGraphModel dx="2271" dy="916" grid="1" gridSize="10" guides="1" tooltips="1" connect="1" arrows="1" fold="1" page="1" pageScale="1" pageWidth="827" pageHeight="1169" math="0" shadow="0">
      <root>
        <mxCell id="WIyWlLk6GJQsqaUBKTNV-0" />
        <mxCell id="WIyWlLk6GJQsqaUBKTNV-1" parent="WIyWlLk6GJQsqaUBKTNV-0" />
        <mxCell id="WIyWlLk6GJQsqaUBKTNV-2" value="" style="rounded=0;html=1;jettySize=auto;orthogonalLoop=1;fontSize=11;endArrow=block;endFill=0;endSize=8;strokeWidth=1;shadow=0;labelBackgroundColor=none;edgeStyle=orthogonalEdgeStyle;" parent="WIyWlLk6GJQsqaUBKTNV-1" edge="1">
          <mxGeometry relative="1" as="geometry">
            <mxPoint x="79.99999999999989" y="120" as="sourcePoint" />
            <mxPoint x="80.00000000000011" y="180" as="targetPoint" />
          </mxGeometry>
        </mxCell>
        <mxCell id="WIyWlLk6GJQsqaUBKTNV-9" value="No" style="edgeStyle=orthogonalEdgeStyle;rounded=0;html=1;jettySize=auto;orthogonalLoop=1;fontSize=11;endArrow=block;endFill=0;endSize=8;strokeWidth=1;shadow=0;labelBackgroundColor=none;entryX=1;entryY=0.5;entryDx=0;entryDy=0;" parent="WIyWlLk6GJQsqaUBKTNV-1" target="AB_6RiF91cN5sbkXbvCS-0" edge="1">
          <mxGeometry y="10" relative="1" as="geometry">
            <mxPoint as="offset" />
            <mxPoint x="140" y="330" as="sourcePoint" />
            <mxPoint x="240" y="200" as="targetPoint" />
            <Array as="points">
              <mxPoint x="255" y="330" />
              <mxPoint x="255" y="205" />
            </Array>
          </mxGeometry>
        </mxCell>
        <mxCell id="WIyWlLk6GJQsqaUBKTNV-10" value="Ada Kata &quot;Microwave&quot;" style="rhombus;whiteSpace=wrap;html=1;shadow=0;fontFamily=Helvetica;fontSize=12;align=center;strokeWidth=1;spacing=6;spacingTop=-4;" parent="WIyWlLk6GJQsqaUBKTNV-1" vertex="1">
          <mxGeometry x="20" y="290" width="120" height="80" as="geometry" />
        </mxCell>
        <mxCell id="AB_6RiF91cN5sbkXbvCS-0" value="Input Suara" style="shape=parallelogram;perimeter=parallelogramPerimeter;whiteSpace=wrap;html=1;fixedSize=1;" vertex="1" parent="WIyWlLk6GJQsqaUBKTNV-1">
          <mxGeometry x="20" y="180" width="120" height="50" as="geometry" />
        </mxCell>
        <mxCell id="AB_6RiF91cN5sbkXbvCS-69" value="" style="edgeStyle=orthogonalEdgeStyle;rounded=0;orthogonalLoop=1;jettySize=auto;html=1;" edge="1" parent="WIyWlLk6GJQsqaUBKTNV-1" source="AB_6RiF91cN5sbkXbvCS-2" target="AB_6RiF91cN5sbkXbvCS-20">
          <mxGeometry relative="1" as="geometry" />
        </mxCell>
        <mxCell id="AB_6RiF91cN5sbkXbvCS-70" value="" style="edgeStyle=orthogonalEdgeStyle;rounded=0;orthogonalLoop=1;jettySize=auto;html=1;" edge="1" parent="WIyWlLk6GJQsqaUBKTNV-1" source="AB_6RiF91cN5sbkXbvCS-2" target="AB_6RiF91cN5sbkXbvCS-17">
          <mxGeometry relative="1" as="geometry" />
        </mxCell>
        <mxCell id="AB_6RiF91cN5sbkXbvCS-2" value="Ada kata &quot;Selama&quot;" style="rhombus;whiteSpace=wrap;html=1;fontStyle=0" vertex="1" parent="WIyWlLk6GJQsqaUBKTNV-1">
          <mxGeometry x="480" y="220" width="120" height="80" as="geometry" />
        </mxCell>
        <mxCell id="AB_6RiF91cN5sbkXbvCS-8" value="Masukkan Input&lt;div&gt;Suhu&lt;/div&gt;" style="shape=parallelogram;perimeter=parallelogramPerimeter;whiteSpace=wrap;html=1;fixedSize=1;" vertex="1" parent="WIyWlLk6GJQsqaUBKTNV-1">
          <mxGeometry x="680" y="370" width="120" height="50" as="geometry" />
        </mxCell>
        <mxCell id="AB_6RiF91cN5sbkXbvCS-9" value="Mulai" style="ellipse;whiteSpace=wrap;html=1;" vertex="1" parent="WIyWlLk6GJQsqaUBKTNV-1">
          <mxGeometry x="25" y="40" width="110" height="78" as="geometry" />
        </mxCell>
        <mxCell id="AB_6RiF91cN5sbkXbvCS-13" value="Yes" style="rounded=0;html=1;jettySize=auto;orthogonalLoop=1;fontSize=11;endArrow=block;endFill=0;endSize=8;strokeWidth=1;shadow=0;labelBackgroundColor=none;edgeStyle=orthogonalEdgeStyle;entryX=0.5;entryY=0;entryDx=0;entryDy=0;" edge="1" parent="WIyWlLk6GJQsqaUBKTNV-1">
          <mxGeometry y="20" relative="1" as="geometry">
            <mxPoint as="offset" />
            <mxPoint x="79.5200000000001" y="370" as="sourcePoint" />
            <mxPoint x="80" y="430" as="targetPoint" />
          </mxGeometry>
        </mxCell>
        <mxCell id="AB_6RiF91cN5sbkXbvCS-15" value="" style="rounded=0;html=1;jettySize=auto;orthogonalLoop=1;fontSize=11;endArrow=block;endFill=0;endSize=8;strokeWidth=1;shadow=0;labelBackgroundColor=none;edgeStyle=orthogonalEdgeStyle;" edge="1" parent="WIyWlLk6GJQsqaUBKTNV-1">
          <mxGeometry relative="1" as="geometry">
            <mxPoint x="79.51999999999987" y="230" as="sourcePoint" />
            <mxPoint x="79.5200000000001" y="290" as="targetPoint" />
          </mxGeometry>
        </mxCell>
        <mxCell id="AB_6RiF91cN5sbkXbvCS-59" value="" style="edgeStyle=orthogonalEdgeStyle;rounded=0;orthogonalLoop=1;jettySize=auto;html=1;" edge="1" parent="WIyWlLk6GJQsqaUBKTNV-1" source="AB_6RiF91cN5sbkXbvCS-17" target="AB_6RiF91cN5sbkXbvCS-8">
          <mxGeometry relative="1" as="geometry" />
        </mxCell>
        <mxCell id="AB_6RiF91cN5sbkXbvCS-101" value="" style="edgeStyle=orthogonalEdgeStyle;rounded=0;orthogonalLoop=1;jettySize=auto;html=1;" edge="1" parent="WIyWlLk6GJQsqaUBKTNV-1" source="AB_6RiF91cN5sbkXbvCS-17" target="AB_6RiF91cN5sbkXbvCS-100">
          <mxGeometry relative="1" as="geometry" />
        </mxCell>
        <mxCell id="AB_6RiF91cN5sbkXbvCS-17" value="Ada kata &quot;Suhu&quot;" style="rhombus;whiteSpace=wrap;html=1;" vertex="1" parent="WIyWlLk6GJQsqaUBKTNV-1">
          <mxGeometry x="680" y="220" width="120" height="80" as="geometry" />
        </mxCell>
        <mxCell id="AB_6RiF91cN5sbkXbvCS-20" value="Masukkan Input Waktu" style="shape=parallelogram;perimeter=parallelogramPerimeter;whiteSpace=wrap;html=1;fixedSize=1;" vertex="1" parent="WIyWlLk6GJQsqaUBKTNV-1">
          <mxGeometry x="480" y="370" width="120" height="50" as="geometry" />
        </mxCell>
        <mxCell id="AB_6RiF91cN5sbkXbvCS-33" style="edgeStyle=orthogonalEdgeStyle;rounded=0;orthogonalLoop=1;jettySize=auto;html=1;exitX=0.5;exitY=1;exitDx=0;exitDy=0;entryX=0.5;entryY=0;entryDx=0;entryDy=0;" edge="1" parent="WIyWlLk6GJQsqaUBKTNV-1" source="AB_6RiF91cN5sbkXbvCS-22" target="AB_6RiF91cN5sbkXbvCS-25">
          <mxGeometry relative="1" as="geometry" />
        </mxCell>
        <mxCell id="AB_6RiF91cN5sbkXbvCS-32" style="edgeStyle=orthogonalEdgeStyle;rounded=0;orthogonalLoop=1;jettySize=auto;html=1;exitX=0.5;exitY=1;exitDx=0;exitDy=0;entryX=0.5;entryY=0;entryDx=0;entryDy=0;" edge="1" parent="WIyWlLk6GJQsqaUBKTNV-1" source="AB_6RiF91cN5sbkXbvCS-24" target="AB_6RiF91cN5sbkXbvCS-22">
          <mxGeometry relative="1" as="geometry" />
        </mxCell>
        <mxCell id="AB_6RiF91cN5sbkXbvCS-105" value="" style="edgeStyle=orthogonalEdgeStyle;rounded=0;orthogonalLoop=1;jettySize=auto;html=1;" edge="1" parent="WIyWlLk6GJQsqaUBKTNV-1" source="AB_6RiF91cN5sbkXbvCS-24" target="AB_6RiF91cN5sbkXbvCS-104">
          <mxGeometry relative="1" as="geometry" />
        </mxCell>
        <mxCell id="AB_6RiF91cN5sbkXbvCS-24" value="Ada Kata&lt;div&gt;&quot;Daging&quot;&lt;/div&gt;" style="rhombus;whiteSpace=wrap;html=1;" vertex="1" parent="WIyWlLk6GJQsqaUBKTNV-1">
          <mxGeometry x="20" y="430" width="120" height="80" as="geometry" />
        </mxCell>
        <mxCell id="AB_6RiF91cN5sbkXbvCS-35" value="" style="edgeStyle=orthogonalEdgeStyle;rounded=0;orthogonalLoop=1;jettySize=auto;html=1;" edge="1" parent="WIyWlLk6GJQsqaUBKTNV-1" source="AB_6RiF91cN5sbkXbvCS-25" target="AB_6RiF91cN5sbkXbvCS-26">
          <mxGeometry relative="1" as="geometry" />
        </mxCell>
        <mxCell id="AB_6RiF91cN5sbkXbvCS-53" value="" style="edgeStyle=orthogonalEdgeStyle;rounded=0;orthogonalLoop=1;jettySize=auto;html=1;" edge="1" parent="WIyWlLk6GJQsqaUBKTNV-1" source="AB_6RiF91cN5sbkXbvCS-25" target="AB_6RiF91cN5sbkXbvCS-50">
          <mxGeometry relative="1" as="geometry" />
        </mxCell>
        <mxCell id="AB_6RiF91cN5sbkXbvCS-25" value="Ada Kata&lt;div&gt;&quot;Pasta&quot;&lt;/div&gt;" style="rhombus;whiteSpace=wrap;html=1;" vertex="1" parent="WIyWlLk6GJQsqaUBKTNV-1">
          <mxGeometry x="20" y="668.75" width="120" height="80" as="geometry" />
        </mxCell>
        <mxCell id="AB_6RiF91cN5sbkXbvCS-36" style="edgeStyle=orthogonalEdgeStyle;rounded=0;orthogonalLoop=1;jettySize=auto;html=1;exitX=0.5;exitY=1;exitDx=0;exitDy=0;entryX=0.5;entryY=0;entryDx=0;entryDy=0;" edge="1" parent="WIyWlLk6GJQsqaUBKTNV-1" source="AB_6RiF91cN5sbkXbvCS-26" target="AB_6RiF91cN5sbkXbvCS-31">
          <mxGeometry relative="1" as="geometry" />
        </mxCell>
        <mxCell id="AB_6RiF91cN5sbkXbvCS-54" value="" style="edgeStyle=orthogonalEdgeStyle;rounded=0;orthogonalLoop=1;jettySize=auto;html=1;" edge="1" parent="WIyWlLk6GJQsqaUBKTNV-1" source="AB_6RiF91cN5sbkXbvCS-26" target="AB_6RiF91cN5sbkXbvCS-42">
          <mxGeometry relative="1" as="geometry" />
        </mxCell>
        <mxCell id="AB_6RiF91cN5sbkXbvCS-26" value="Ada Kata&lt;div&gt;&quot;Beras&quot;&lt;/div&gt;" style="rhombus;whiteSpace=wrap;html=1;" vertex="1" parent="WIyWlLk6GJQsqaUBKTNV-1">
          <mxGeometry x="20" y="792.5" width="120" height="80" as="geometry" />
        </mxCell>
        <mxCell id="AB_6RiF91cN5sbkXbvCS-60" value="" style="edgeStyle=orthogonalEdgeStyle;rounded=0;orthogonalLoop=1;jettySize=auto;html=1;" edge="1" parent="WIyWlLk6GJQsqaUBKTNV-1" source="AB_6RiF91cN5sbkXbvCS-27" target="AB_6RiF91cN5sbkXbvCS-57">
          <mxGeometry relative="1" as="geometry" />
        </mxCell>
        <mxCell id="AB_6RiF91cN5sbkXbvCS-67" style="edgeStyle=orthogonalEdgeStyle;rounded=0;orthogonalLoop=1;jettySize=auto;html=1;exitX=1;exitY=0.5;exitDx=0;exitDy=0;entryX=0;entryY=0.5;entryDx=0;entryDy=0;" edge="1" parent="WIyWlLk6GJQsqaUBKTNV-1" source="AB_6RiF91cN5sbkXbvCS-27" target="AB_6RiF91cN5sbkXbvCS-2">
          <mxGeometry relative="1" as="geometry" />
        </mxCell>
        <mxCell id="AB_6RiF91cN5sbkXbvCS-27" value="Ada Kata&lt;div&gt;&quot;Sup&quot;&lt;/div&gt;" style="rhombus;whiteSpace=wrap;html=1;" vertex="1" parent="WIyWlLk6GJQsqaUBKTNV-1">
          <mxGeometry x="210" y="556.25" width="120" height="80" as="geometry" />
        </mxCell>
        <mxCell id="AB_6RiF91cN5sbkXbvCS-40" value="" style="edgeStyle=orthogonalEdgeStyle;rounded=0;orthogonalLoop=1;jettySize=auto;html=1;" edge="1" parent="WIyWlLk6GJQsqaUBKTNV-1" source="AB_6RiF91cN5sbkXbvCS-28" target="AB_6RiF91cN5sbkXbvCS-27">
          <mxGeometry relative="1" as="geometry" />
        </mxCell>
        <mxCell id="AB_6RiF91cN5sbkXbvCS-64" value="" style="edgeStyle=orthogonalEdgeStyle;rounded=0;orthogonalLoop=1;jettySize=auto;html=1;" edge="1" parent="WIyWlLk6GJQsqaUBKTNV-1" source="AB_6RiF91cN5sbkXbvCS-28" target="AB_6RiF91cN5sbkXbvCS-62">
          <mxGeometry relative="1" as="geometry" />
        </mxCell>
        <mxCell id="AB_6RiF91cN5sbkXbvCS-28" value="Ada Kata&lt;div&gt;&quot;Kopi&quot;&lt;/div&gt;" style="rhombus;whiteSpace=wrap;html=1;" vertex="1" parent="WIyWlLk6GJQsqaUBKTNV-1">
          <mxGeometry x="210" y="665" width="120" height="80" as="geometry" />
        </mxCell>
        <mxCell id="AB_6RiF91cN5sbkXbvCS-39" value="" style="edgeStyle=orthogonalEdgeStyle;rounded=0;orthogonalLoop=1;jettySize=auto;html=1;" edge="1" parent="WIyWlLk6GJQsqaUBKTNV-1" source="AB_6RiF91cN5sbkXbvCS-29" target="AB_6RiF91cN5sbkXbvCS-28">
          <mxGeometry relative="1" as="geometry" />
        </mxCell>
        <mxCell id="AB_6RiF91cN5sbkXbvCS-65" value="" style="edgeStyle=orthogonalEdgeStyle;rounded=0;orthogonalLoop=1;jettySize=auto;html=1;" edge="1" parent="WIyWlLk6GJQsqaUBKTNV-1" source="AB_6RiF91cN5sbkXbvCS-29" target="AB_6RiF91cN5sbkXbvCS-63">
          <mxGeometry relative="1" as="geometry" />
        </mxCell>
        <mxCell id="AB_6RiF91cN5sbkXbvCS-29" value="Ada Kata&lt;div&gt;&quot;Air&quot;&lt;/div&gt;" style="rhombus;whiteSpace=wrap;html=1;" vertex="1" parent="WIyWlLk6GJQsqaUBKTNV-1">
          <mxGeometry x="210" y="788.75" width="120" height="80" as="geometry" />
        </mxCell>
        <mxCell id="AB_6RiF91cN5sbkXbvCS-41" style="edgeStyle=orthogonalEdgeStyle;rounded=0;orthogonalLoop=1;jettySize=auto;html=1;exitX=0.5;exitY=0;exitDx=0;exitDy=0;entryX=0.5;entryY=1;entryDx=0;entryDy=0;" edge="1" parent="WIyWlLk6GJQsqaUBKTNV-1" source="AB_6RiF91cN5sbkXbvCS-30" target="AB_6RiF91cN5sbkXbvCS-29">
          <mxGeometry relative="1" as="geometry" />
        </mxCell>
        <mxCell id="AB_6RiF91cN5sbkXbvCS-66" value="" style="edgeStyle=orthogonalEdgeStyle;rounded=0;orthogonalLoop=1;jettySize=auto;html=1;" edge="1" parent="WIyWlLk6GJQsqaUBKTNV-1" source="AB_6RiF91cN5sbkXbvCS-30" target="AB_6RiF91cN5sbkXbvCS-61">
          <mxGeometry relative="1" as="geometry" />
        </mxCell>
        <mxCell id="AB_6RiF91cN5sbkXbvCS-30" value="Ada Kata&lt;div&gt;&quot;Susu&quot;&lt;/div&gt;" style="rhombus;whiteSpace=wrap;html=1;" vertex="1" parent="WIyWlLk6GJQsqaUBKTNV-1">
          <mxGeometry x="210" y="910" width="120" height="80" as="geometry" />
        </mxCell>
        <mxCell id="AB_6RiF91cN5sbkXbvCS-55" value="" style="edgeStyle=orthogonalEdgeStyle;rounded=0;orthogonalLoop=1;jettySize=auto;html=1;" edge="1" parent="WIyWlLk6GJQsqaUBKTNV-1" source="AB_6RiF91cN5sbkXbvCS-31" target="AB_6RiF91cN5sbkXbvCS-51">
          <mxGeometry relative="1" as="geometry" />
        </mxCell>
        <mxCell id="AB_6RiF91cN5sbkXbvCS-91" value="" style="edgeStyle=orthogonalEdgeStyle;rounded=0;orthogonalLoop=1;jettySize=auto;html=1;" edge="1" parent="WIyWlLk6GJQsqaUBKTNV-1" source="AB_6RiF91cN5sbkXbvCS-31" target="AB_6RiF91cN5sbkXbvCS-30">
          <mxGeometry relative="1" as="geometry" />
        </mxCell>
        <mxCell id="AB_6RiF91cN5sbkXbvCS-31" value="Ada Kata&lt;div&gt;&quot;Roti&quot;&lt;/div&gt;" style="rhombus;whiteSpace=wrap;html=1;" vertex="1" parent="WIyWlLk6GJQsqaUBKTNV-1">
          <mxGeometry x="20" y="910" width="120" height="80" as="geometry" />
        </mxCell>
        <mxCell id="AB_6RiF91cN5sbkXbvCS-42" value="&lt;span style=&quot;background-color: initial;&quot;&gt;Waktu dan Suhu sesuai dengan preset Beras&amp;nbsp;&amp;nbsp;&lt;/span&gt;" style="shape=parallelogram;perimeter=parallelogramPerimeter;whiteSpace=wrap;html=1;fixedSize=1;" vertex="1" parent="WIyWlLk6GJQsqaUBKTNV-1">
          <mxGeometry x="-190" y="796.25" width="170" height="72.5" as="geometry" />
        </mxCell>
        <mxCell id="AB_6RiF91cN5sbkXbvCS-48" value="&lt;span style=&quot;background-color: initial;&quot;&gt;Waktu dan Suhu sesuai dengan preset Sayur&amp;nbsp;&amp;nbsp;&lt;/span&gt;" style="shape=parallelogram;perimeter=parallelogramPerimeter;whiteSpace=wrap;html=1;fixedSize=1;" vertex="1" parent="WIyWlLk6GJQsqaUBKTNV-1">
          <mxGeometry x="-180" y="563.75" width="170" height="72.5" as="geometry" />
        </mxCell>
        <mxCell id="AB_6RiF91cN5sbkXbvCS-50" value="&lt;span style=&quot;background-color: initial;&quot;&gt;Waktu dan Suhu sesuai dengan preset Pasta&amp;nbsp;&lt;/span&gt;" style="shape=parallelogram;perimeter=parallelogramPerimeter;whiteSpace=wrap;html=1;fixedSize=1;" vertex="1" parent="WIyWlLk6GJQsqaUBKTNV-1">
          <mxGeometry x="-190" y="672.5" width="170" height="72.5" as="geometry" />
        </mxCell>
        <mxCell id="AB_6RiF91cN5sbkXbvCS-51" value="&lt;span style=&quot;background-color: initial;&quot;&gt;Waktu dan Suhu sesuai dengan preset Roti&amp;nbsp;&lt;/span&gt;" style="shape=parallelogram;perimeter=parallelogramPerimeter;whiteSpace=wrap;html=1;fixedSize=1;" vertex="1" parent="WIyWlLk6GJQsqaUBKTNV-1">
          <mxGeometry x="-190" y="913.75" width="170" height="72.5" as="geometry" />
        </mxCell>
        <mxCell id="AB_6RiF91cN5sbkXbvCS-68" value="" style="edgeStyle=orthogonalEdgeStyle;rounded=0;orthogonalLoop=1;jettySize=auto;html=1;" edge="1" parent="WIyWlLk6GJQsqaUBKTNV-1" source="AB_6RiF91cN5sbkXbvCS-22" target="AB_6RiF91cN5sbkXbvCS-48">
          <mxGeometry relative="1" as="geometry" />
        </mxCell>
        <mxCell id="AB_6RiF91cN5sbkXbvCS-22" value="Ada Kata&lt;div&gt;&quot;Sayur&quot;&lt;/div&gt;" style="rhombus;whiteSpace=wrap;html=1;" vertex="1" parent="WIyWlLk6GJQsqaUBKTNV-1">
          <mxGeometry x="20" y="560" width="120" height="80" as="geometry" />
        </mxCell>
        <mxCell id="AB_6RiF91cN5sbkXbvCS-57" value="&lt;span style=&quot;background-color: initial;&quot;&gt;Waktu dan Suhu sesuai dengan preset Sup&amp;nbsp;&amp;nbsp;&lt;/span&gt;" style="shape=parallelogram;perimeter=parallelogramPerimeter;whiteSpace=wrap;html=1;fixedSize=1;" vertex="1" parent="WIyWlLk6GJQsqaUBKTNV-1">
          <mxGeometry x="185" y="420" width="170" height="52.5" as="geometry" />
        </mxCell>
        <mxCell id="AB_6RiF91cN5sbkXbvCS-58" style="edgeStyle=orthogonalEdgeStyle;rounded=0;orthogonalLoop=1;jettySize=auto;html=1;exitX=0.5;exitY=1;exitDx=0;exitDy=0;" edge="1" parent="WIyWlLk6GJQsqaUBKTNV-1" source="AB_6RiF91cN5sbkXbvCS-8" target="AB_6RiF91cN5sbkXbvCS-8">
          <mxGeometry relative="1" as="geometry" />
        </mxCell>
        <mxCell id="AB_6RiF91cN5sbkXbvCS-61" value="&lt;span style=&quot;background-color: initial;&quot;&gt;Waktu dan Suhu sesuai dengan preset Susu&amp;nbsp;&amp;nbsp;&lt;/span&gt;" style="shape=parallelogram;perimeter=parallelogramPerimeter;whiteSpace=wrap;html=1;fixedSize=1;" vertex="1" parent="WIyWlLk6GJQsqaUBKTNV-1">
          <mxGeometry x="380" y="913.75" width="170" height="72.5" as="geometry" />
        </mxCell>
        <mxCell id="AB_6RiF91cN5sbkXbvCS-62" value="&lt;span style=&quot;background-color: initial;&quot;&gt;Waktu dan Suhu sesuai dengan preset Kopi&amp;nbsp;&amp;nbsp;&lt;/span&gt;" style="shape=parallelogram;perimeter=parallelogramPerimeter;whiteSpace=wrap;html=1;fixedSize=1;" vertex="1" parent="WIyWlLk6GJQsqaUBKTNV-1">
          <mxGeometry x="390" y="668.75" width="170" height="72.5" as="geometry" />
        </mxCell>
        <mxCell id="AB_6RiF91cN5sbkXbvCS-63" value="&lt;span style=&quot;background-color: initial;&quot;&gt;Waktu dan Suhu sesuai dengan preset Air&amp;nbsp;&amp;nbsp;&lt;/span&gt;" style="shape=parallelogram;perimeter=parallelogramPerimeter;whiteSpace=wrap;html=1;fixedSize=1;" vertex="1" parent="WIyWlLk6GJQsqaUBKTNV-1">
          <mxGeometry x="390" y="792.5" width="170" height="72.5" as="geometry" />
        </mxCell>
        <mxCell id="AB_6RiF91cN5sbkXbvCS-71" value="No" style="text;html=1;align=center;verticalAlign=middle;resizable=0;points=[];autosize=1;strokeColor=none;fillColor=none;" vertex="1" parent="WIyWlLk6GJQsqaUBKTNV-1">
          <mxGeometry x="80" y="508" width="40" height="30" as="geometry" />
        </mxCell>
        <mxCell id="AB_6RiF91cN5sbkXbvCS-72" value="Yes" style="text;html=1;align=center;verticalAlign=middle;resizable=0;points=[];autosize=1;strokeColor=none;fillColor=none;" vertex="1" parent="WIyWlLk6GJQsqaUBKTNV-1">
          <mxGeometry x="-20" y="568" width="40" height="30" as="geometry" />
        </mxCell>
        <mxCell id="AB_6RiF91cN5sbkXbvCS-74" value="Yes" style="text;html=1;align=center;verticalAlign=middle;resizable=0;points=[];autosize=1;strokeColor=none;fillColor=none;" vertex="1" parent="WIyWlLk6GJQsqaUBKTNV-1">
          <mxGeometry x="-10" y="678" width="40" height="30" as="geometry" />
        </mxCell>
        <mxCell id="AB_6RiF91cN5sbkXbvCS-75" value="Yes" style="text;html=1;align=center;verticalAlign=middle;resizable=0;points=[];autosize=1;strokeColor=none;fillColor=none;" vertex="1" parent="WIyWlLk6GJQsqaUBKTNV-1">
          <mxGeometry x="-20" y="798" width="40" height="30" as="geometry" />
        </mxCell>
        <mxCell id="AB_6RiF91cN5sbkXbvCS-76" value="Yes" style="text;html=1;align=center;verticalAlign=middle;resizable=0;points=[];autosize=1;strokeColor=none;fillColor=none;" vertex="1" parent="WIyWlLk6GJQsqaUBKTNV-1">
          <mxGeometry x="-20" y="918" width="40" height="30" as="geometry" />
        </mxCell>
        <mxCell id="AB_6RiF91cN5sbkXbvCS-79" value="No" style="text;html=1;align=center;verticalAlign=middle;resizable=0;points=[];autosize=1;strokeColor=none;fillColor=none;" vertex="1" parent="WIyWlLk6GJQsqaUBKTNV-1">
          <mxGeometry x="280" y="865" width="40" height="30" as="geometry" />
        </mxCell>
        <mxCell id="AB_6RiF91cN5sbkXbvCS-80" value="No" style="text;html=1;align=center;verticalAlign=middle;resizable=0;points=[];autosize=1;strokeColor=none;fillColor=none;" vertex="1" parent="WIyWlLk6GJQsqaUBKTNV-1">
          <mxGeometry x="95" y="872.5" width="40" height="30" as="geometry" />
        </mxCell>
        <mxCell id="AB_6RiF91cN5sbkXbvCS-81" value="No" style="text;html=1;align=center;verticalAlign=middle;resizable=0;points=[];autosize=1;strokeColor=none;fillColor=none;" vertex="1" parent="WIyWlLk6GJQsqaUBKTNV-1">
          <mxGeometry x="80" y="748.75" width="40" height="30" as="geometry" />
        </mxCell>
        <mxCell id="AB_6RiF91cN5sbkXbvCS-82" value="No" style="text;html=1;align=center;verticalAlign=middle;resizable=0;points=[];autosize=1;strokeColor=none;fillColor=none;" vertex="1" parent="WIyWlLk6GJQsqaUBKTNV-1">
          <mxGeometry x="90" y="640" width="40" height="30" as="geometry" />
        </mxCell>
        <mxCell id="AB_6RiF91cN5sbkXbvCS-83" value="No" style="text;html=1;align=center;verticalAlign=middle;resizable=0;points=[];autosize=1;strokeColor=none;fillColor=none;" vertex="1" parent="WIyWlLk6GJQsqaUBKTNV-1">
          <mxGeometry x="280" y="758.75" width="40" height="30" as="geometry" />
        </mxCell>
        <mxCell id="AB_6RiF91cN5sbkXbvCS-84" value="No" style="text;html=1;align=center;verticalAlign=middle;resizable=0;points=[];autosize=1;strokeColor=none;fillColor=none;" vertex="1" parent="WIyWlLk6GJQsqaUBKTNV-1">
          <mxGeometry x="290" y="638.75" width="40" height="30" as="geometry" />
        </mxCell>
        <mxCell id="AB_6RiF91cN5sbkXbvCS-92" value="No" style="text;html=1;align=center;verticalAlign=middle;resizable=0;points=[];autosize=1;strokeColor=none;fillColor=none;" vertex="1" parent="WIyWlLk6GJQsqaUBKTNV-1">
          <mxGeometry x="150" y="908" width="40" height="30" as="geometry" />
        </mxCell>
        <mxCell id="AB_6RiF91cN5sbkXbvCS-93" value="Yes" style="text;html=1;align=center;verticalAlign=middle;resizable=0;points=[];autosize=1;strokeColor=none;fillColor=none;" vertex="1" parent="WIyWlLk6GJQsqaUBKTNV-1">
          <mxGeometry x="280" y="500" width="40" height="30" as="geometry" />
        </mxCell>
        <mxCell id="AB_6RiF91cN5sbkXbvCS-94" value="Yes" style="text;html=1;align=center;verticalAlign=middle;resizable=0;points=[];autosize=1;strokeColor=none;fillColor=none;" vertex="1" parent="WIyWlLk6GJQsqaUBKTNV-1">
          <mxGeometry x="340" y="788.75" width="40" height="30" as="geometry" />
        </mxCell>
        <mxCell id="AB_6RiF91cN5sbkXbvCS-95" value="Yes" style="text;html=1;align=center;verticalAlign=middle;resizable=0;points=[];autosize=1;strokeColor=none;fillColor=none;" vertex="1" parent="WIyWlLk6GJQsqaUBKTNV-1">
          <mxGeometry x="330" y="902.5" width="40" height="30" as="geometry" />
        </mxCell>
        <mxCell id="AB_6RiF91cN5sbkXbvCS-100" value="Selesai" style="ellipse;whiteSpace=wrap;html=1;" vertex="1" parent="WIyWlLk6GJQsqaUBKTNV-1">
          <mxGeometry x="850" y="220" width="110" height="78" as="geometry" />
        </mxCell>
        <mxCell id="AB_6RiF91cN5sbkXbvCS-102" value="Yes" style="text;html=1;align=center;verticalAlign=middle;resizable=0;points=[];autosize=1;strokeColor=none;fillColor=none;" vertex="1" parent="WIyWlLk6GJQsqaUBKTNV-1">
          <mxGeometry x="550" y="308" width="40" height="30" as="geometry" />
        </mxCell>
        <mxCell id="AB_6RiF91cN5sbkXbvCS-103" value="Yes" style="text;html=1;align=center;verticalAlign=middle;resizable=0;points=[];autosize=1;strokeColor=none;fillColor=none;" vertex="1" parent="WIyWlLk6GJQsqaUBKTNV-1">
          <mxGeometry x="760" y="315" width="40" height="30" as="geometry" />
        </mxCell>
        <mxCell id="AB_6RiF91cN5sbkXbvCS-104" value="&lt;span style=&quot;background-color: initial;&quot;&gt;Waktu dan Suhu sesuai dengan preset Sayur&amp;nbsp;&amp;nbsp;&lt;/span&gt;" style="shape=parallelogram;perimeter=parallelogramPerimeter;whiteSpace=wrap;html=1;fixedSize=1;" vertex="1" parent="WIyWlLk6GJQsqaUBKTNV-1">
          <mxGeometry x="-190" y="433.75" width="170" height="72.5" as="geometry" />
        </mxCell>
        <mxCell id="AB_6RiF91cN5sbkXbvCS-106" value="Yes" style="text;html=1;align=center;verticalAlign=middle;resizable=0;points=[];autosize=1;strokeColor=none;fillColor=none;" vertex="1" parent="WIyWlLk6GJQsqaUBKTNV-1">
          <mxGeometry x="-15" y="433.75" width="40" height="30" as="geometry" />
        </mxCell>
        <mxCell id="AB_6RiF91cN5sbkXbvCS-108" value="No" style="text;html=1;align=center;verticalAlign=middle;resizable=0;points=[];autosize=1;strokeColor=none;fillColor=none;" vertex="1" parent="WIyWlLk6GJQsqaUBKTNV-1">
          <mxGeometry x="350" y="558" width="40" height="30" as="geometry" />
        </mxCell>
      </root>
    </mxGraphModel>
  </diagram>
</mxfile>
